<svg version="1.1" xmlns="http://www.w3.org/2000/svg" x="0" y="0" viewBox="0 0 166 148" enable-background="new 0 0 166 148" xml:space="preserve"><path fill="#0E92CC" d="M11 0C5.1 0 0.2 4.9 0.2 10.9v92.4c0 6 4.9 10.9 10.9 10.9h105.4c6 0 14.3 3.5 18.6 7.7l23.8 23.8c4.2 4.2 7.7 2.8 7.7-3.2V125c0-6 0-11.6 0-12.5s0-6.5 0-12.5V10.9C166.5 4.9 161.6 0 155.6 0H11z"/><path fill="#FFFFFF" d="M113.3 98.1c-2-5.3-7.8-19.4-13.5-21.6 -1.6-3.2-4.5-12.2-10.9-18.3 -0.6-3.5-0.9-9.4-3.4-9.9 -3.1-0.6-3.2 3.7-3.3 4.9 -0.1 0.7-1.8 0.6-1.4-1.9 0.3-1.8 1-3.4 1.3-6.9 1.1-0.6 1.1-2.2 2-3.7 3.9-6.7 13.7-22.6 26.4-22.5 2.8 0 2.9-1.2 0.5-1.8 -17.9-4.4-29 11.4-29.9 11.4 -4.2-0.3-3 2.6-2.4 3.6 0.4 0.6-1.8 3.8-2.6 3.6 -5.3-1-1.6 4.1-4.1 5.1C71.6 21.1 82.6 14.3 89.4 13.4c1.2-0.1 1.3-1.3 0.1-1.4C88.9 12 88.4 12 87.8 12h0l0 0C71 11.9 66.7 23.4 65.4 27.7c-1.8 0.1-2.6 2.1-1.1 2.5 0.9 0.2 0.9 3.4 0 3.3 -2.7-0.3-3.6 3.5-1.9 4.3 1 0.5 1 2.9 0.2 3 -2.3 0.4-3.7 4.1 0 4.8 1.2 0.2 1.1 2.1-0.1 2.4 -0.6 0.2-4.2 1.9-0.8 5.5 -3.3 2.5-3.2 7.5-1.9 9.5 0.7 1 2.3 2 2.2 2.9 -0.2 2.8-6.6 15.8-8.2 17.9 -1.3 1.7-1.4 4-1 5.9 0.2 1 2 3.1 3.4 3.5 1.7 0.5 2.3 0.4 3.7-0.2 -2.2 2.4 1.8 3.4 4.3 0.2 1.4-1.7 3.5-0.4 5.5-1.1 2.9-1 5.3-5.2 9.8-4.9 1.2 4.9-3.8 7.1-5 12.9 -5-1 39.7 1.1 39.7 1.1C113.9 100 113.6 99.1 113.3 98.1zM72 69.7c-1.1-0.5-1.9 1.5-2.1 1.3 0.1-1.3 0.7-3.9 1.1-4.1l0 0c0 0 0.1 0 0.1 0 2.5 1.2 6.2 0.1 6.2 0.1S74.3 70.8 72 69.7z"/></svg>